<svg width="477" height="437" viewBox="0 0 477 437" fill="none" xmlns="http://www.w3.org/2000/svg">
<path d="M424.092 65.8268C424.092 65.8268 395.115 9.4161 330.985 1.10294C266.855 -7.21022 222.083 33.5243 174.935 54.4259C150.233 65.3518 121.968 61.0765 95.8413 66.4206C11.9971 83.2845 -19.5929 189.337 15.3224 249.666C45.606 301.921 98.8103 329.117 179.804 335.292C260.798 341.467 317.684 348.831 390.246 297.645C462.808 246.579 458.058 139.933 424.092 65.8268Z" fill="#C6FF00"/>
<path opacity="0.8" d="M424.092 65.8268C424.092 65.8268 395.115 9.4161 330.985 1.10294C266.855 -7.21022 222.083 33.5243 174.935 54.4259C150.233 65.3518 121.968 61.0765 95.8413 66.4206C11.9971 83.2845 -19.5929 189.337 15.3224 249.666C45.606 301.921 98.8103 329.117 179.804 335.292C260.798 341.467 317.684 348.831 390.246 297.645C462.808 246.579 458.058 139.933 424.092 65.8268Z" fill="white"/>
<path d="M356.162 113.331L343.692 165.347C343.692 165.347 347.968 171.404 349.749 173.067C351.412 174.729 355.331 174.729 356.637 174.729C357.944 174.729 406.516 175.561 406.516 175.561L416.017 111.905" stroke="#263238" stroke-miterlimit="10" stroke-linecap="round" stroke-linejoin="round"/>
<path d="M366.613 103.592L362.694 103.474" stroke="#263238" stroke-miterlimit="10" stroke-linecap="round" stroke-linejoin="round"/>
<path d="M346.305 166.297L398.797 166.06L409.96 104.305L371.482 103.592" stroke="#263238" stroke-miterlimit="10" stroke-linecap="round" stroke-linejoin="round"/>
<path d="M349.274 166.654L353.668 171.404L403.904 172.71L413.048 117.487L409.129 112.024" stroke="#263238" stroke-miterlimit="10" stroke-linecap="round" stroke-linejoin="round"/>
<path d="M358.062 169.385H365.307C365.307 169.385 364.119 175.204 363.525 180.667C362.931 186.13 362.575 193.137 362.575 193.137L358.3 185.299L353.193 191.949L358.062 169.385Z" fill="#263238"/>
<path d="M51.3068 180.786L82.303 168.316C82.303 168.316 83.8468 163.922 84.0844 162.497C84.3219 160.953 82.8968 159.053 82.4217 158.34C81.9467 157.628 64.8453 132.688 64.8453 132.688L28.98 150.74" stroke="#263238" stroke-miterlimit="10" stroke-linecap="round" stroke-linejoin="round"/>
<path d="M42.5186 179.005L43.9437 181.142" stroke="#263238" stroke-miterlimit="10" stroke-linecap="round" stroke-linejoin="round"/>
<path d="M81.8278 166.654L62.7076 140.051L27.1985 156.678L40.8558 176.511" stroke="#263238" stroke-miterlimit="10" stroke-linecap="round" stroke-linejoin="round"/>
<path d="M80.9966 164.991L81.8279 161.072L64.2515 135.064L32.899 150.384L31.4739 154.303" stroke="#263238" stroke-miterlimit="10" stroke-linecap="round" stroke-linejoin="round"/>
<path d="M79.0963 159.528L76.4836 155.846C76.4836 155.846 79.8089 154.421 82.8967 152.759C85.8656 151.096 89.5472 148.721 89.5472 148.721L87.0532 153.709L92.2786 153.946L79.0963 159.528Z" fill="#263238"/>
<path d="M50.594 229.477L48.1001 230.784L69.8331 272.349L106.173 233.515L150.589 219.858L128.381 184.467L126.481 184.586" stroke="#263238" stroke-miterlimit="10" stroke-linecap="round" stroke-linejoin="round"/>
<path d="M83.0154 194.325L102.373 229.24C102.373 229.24 93.8225 227.34 91.9224 235.415C90.0222 243.491 81.4715 253.823 77.79 258.573C73.9897 263.324 70.1894 266.649 70.1894 266.649L49.4065 226.983C49.4065 226.983 59.3823 218.908 64.0139 207.626C68.883 196.225 76.4836 192.899 83.0154 194.325Z" stroke="#263238" stroke-miterlimit="10" stroke-linecap="round" stroke-linejoin="round"/>
<path d="M102.373 229.359C102.373 229.359 104.748 222.233 110.449 221.758C116.149 221.283 126.481 223.183 135.507 220.333C144.533 217.483 145.958 216.533 145.958 216.533L124.225 181.142C124.225 181.142 118.999 185.418 105.817 185.418C92.6348 185.418 84.5591 187.793 83.134 194.443L102.373 229.359Z" stroke="#263238" stroke-miterlimit="10" stroke-linecap="round" stroke-linejoin="round"/>
<path d="M103.798 233.04C103.798 233.04 100.473 234.465 97.1478 237.315C93.8225 240.166 90.9723 245.391 85.3906 252.398" stroke="#263238" stroke-miterlimit="10" stroke-linecap="round" stroke-linejoin="round"/>
<path d="M107.599 230.309C107.599 230.309 110.924 226.033 116.149 225.558C121.375 225.083 130.282 225.083 145.008 219.383" stroke="#263238" stroke-miterlimit="10" stroke-linecap="round" stroke-linejoin="round"/>
<path d="M56.6509 232.09C56.6509 232.09 61.4013 226.865 67.933 217.483C74.5836 207.982 79.2152 204.3 84.4406 204.3" stroke="#263238" stroke-miterlimit="10" stroke-linecap="round" stroke-linejoin="round"/>
<path d="M60.3323 238.266C60.3323 238.266 65.0827 233.04 71.6144 223.658C78.265 214.157 82.8966 210.476 88.122 210.476" stroke="#263238" stroke-miterlimit="10" stroke-linecap="round" stroke-linejoin="round"/>
<path d="M64.1326 244.441C64.1326 244.441 68.8829 239.216 75.4147 229.834C82.0652 220.333 86.6969 216.651 91.9223 216.651" stroke="#263238" stroke-miterlimit="10" stroke-linecap="round" stroke-linejoin="round"/>
<path d="M67.9329 250.617C67.9329 250.617 72.6832 245.391 79.215 236.009C85.8655 226.508 90.4972 222.827 95.7226 222.827" stroke="#263238" stroke-miterlimit="10" stroke-linecap="round" stroke-linejoin="round"/>
<path d="M91.0911 201.45C91.0911 201.45 92.9912 196.225 100.117 196.225C107.242 196.225 122.8 195.631 124.7 190.049" stroke="#263238" stroke-miterlimit="10" stroke-linecap="round" stroke-linejoin="round"/>
<path d="M95.3665 208.576C95.3665 208.576 98.6917 204.3 107.599 204.3C116.624 204.3 124.581 202.4 129.807 197.175" stroke="#263238" stroke-miterlimit="10" stroke-linecap="round" stroke-linejoin="round"/>
<path d="M98.2166 215.582C98.2166 215.582 101.067 209.407 109.024 209.407C117.099 209.407 126.956 207.982 132.657 203.707" stroke="#263238" stroke-miterlimit="10" stroke-linecap="round" stroke-linejoin="round"/>
<path d="M101.423 220.808C101.423 220.808 102.848 216.058 110.924 215.582C118.999 215.107 128.857 213.207 136.457 209.882" stroke="#263238" stroke-miterlimit="10" stroke-linecap="round" stroke-linejoin="round"/>
<path d="M307.708 17.2542L306.521 15.8291L282.65 37.4433L314.715 54.901L331.46 82.0969L351.174 61.1952L350.818 59.8889" stroke="#263238" stroke-miterlimit="10" stroke-linecap="round" stroke-linejoin="round"/>
<path d="M336.804 32.693L316.853 51.5757C316.853 51.5757 316.615 45.6377 310.915 45.7565C305.214 45.8753 296.901 42.075 293.101 40.2936C289.301 38.6309 286.45 36.612 286.45 36.612L309.252 15.9479C309.252 15.9479 316.259 21.1733 324.691 22.3609C333.004 23.6672 336.567 28.0613 336.804 32.693Z" stroke="#263238" stroke-miterlimit="10" stroke-linecap="round" stroke-linejoin="round"/>
<path d="M316.853 51.6944C316.853 51.6944 321.959 52.0507 323.266 55.7323C324.572 59.4138 325.047 66.6581 328.491 72.1211C331.935 77.584 332.767 78.4153 332.767 78.4153L352.718 57.7512C352.718 57.7512 349.037 55.0197 346.661 46.2315C344.405 37.4433 341.436 32.4554 336.804 32.6929L316.853 51.6944Z" stroke="#263238" stroke-miterlimit="10" stroke-linecap="round" stroke-linejoin="round"/>
<path d="M314.596 53.2383C314.596 53.2383 313.053 51.3382 310.677 49.5568C308.183 47.8941 304.264 46.8253 298.564 44.3314" stroke="#263238" stroke-miterlimit="10" stroke-linecap="round" stroke-linejoin="round"/>
<path d="M317.09 55.2572C317.09 55.2572 320.534 56.6823 321.722 60.1264C322.91 63.4516 324.453 69.5084 330.748 78.1778" stroke="#263238" stroke-miterlimit="10" stroke-linecap="round" stroke-linejoin="round"/>
<path d="M306.996 21.6483C306.996 21.6483 311.271 23.9047 318.753 26.6362C326.235 29.3676 329.56 31.8616 330.391 35.3056" stroke="#263238" stroke-miterlimit="10" stroke-linecap="round" stroke-linejoin="round"/>
<path d="M303.671 25.2111C303.671 25.2111 307.946 27.4675 315.428 30.199C322.91 32.9305 326.235 35.4244 327.066 38.8684" stroke="#263238" stroke-miterlimit="10" stroke-linecap="round" stroke-linejoin="round"/>
<path d="M300.227 28.8926C300.227 28.8926 304.502 31.1491 311.984 33.8805C319.466 36.612 322.791 39.106 323.622 42.55" stroke="#263238" stroke-miterlimit="10" stroke-linecap="round" stroke-linejoin="round"/>
<path d="M296.782 32.4554C296.782 32.4554 301.058 34.7118 308.54 37.4433C316.021 40.1748 319.347 42.6687 320.178 46.1128" stroke="#263238" stroke-miterlimit="10" stroke-linecap="round" stroke-linejoin="round"/>
<path d="M333.479 39.3435C333.479 39.3435 337.28 39.6997 338.467 44.4501C339.655 49.2005 342.861 59.4138 346.78 59.7701" stroke="#263238" stroke-miterlimit="10" stroke-linecap="round" stroke-linejoin="round"/>
<path d="M329.441 43.3813C329.441 43.3813 332.885 44.8064 334.429 50.8631C335.973 56.8011 338.586 61.9078 342.98 64.4017" stroke="#263238" stroke-miterlimit="10" stroke-linecap="round" stroke-linejoin="round"/>
<path d="M325.285 46.469C325.285 46.469 329.916 47.3003 331.223 52.6445C332.648 57.9887 335.26 64.4017 339.061 67.3707" stroke="#263238" stroke-miterlimit="10" stroke-linecap="round" stroke-linejoin="round"/>
<path d="M322.316 49.5568C322.316 49.5568 325.76 49.6755 327.422 54.9009C329.085 60.1264 332.054 66.4206 335.617 70.9335" stroke="#263238" stroke-miterlimit="10" stroke-linecap="round" stroke-linejoin="round"/>
<path d="M135.032 64.1642L115.199 95.2791L119.475 96.348L139.307 66.8956L170.897 85.1846L175.173 80.7905L140.376 62.6203" stroke="#263238" stroke-miterlimit="10" stroke-linecap="round" stroke-linejoin="round"/>
<path d="M139.307 66.8956L147.858 118.437L174.104 133.401L170.422 87.7973" stroke="#263238" stroke-miterlimit="10" stroke-linecap="round" stroke-linejoin="round"/>
<path d="M174.104 133.401L178.379 125.325L175.173 80.7905" stroke="#263238" stroke-miterlimit="10" stroke-linecap="round" stroke-linejoin="round"/>
<path d="M147.858 118.437L130.163 142.545L121.018 100.623" stroke="#263238" stroke-miterlimit="10" stroke-linecap="round" stroke-linejoin="round"/>
<path d="M115.199 95.2791L125.294 141.952L130.163 142.545" stroke="#263238" stroke-miterlimit="10" stroke-linecap="round" stroke-linejoin="round"/>
<path d="M140.376 84.5908L126.363 103.949" stroke="#263238" stroke-miterlimit="10" stroke-linecap="round" stroke-linejoin="round"/>
<path d="M141.445 93.7353L127.431 112.974" stroke="#263238" stroke-miterlimit="10" stroke-linecap="round" stroke-linejoin="round"/>
<path d="M142.514 102.88L128.5 122.119" stroke="#263238" stroke-miterlimit="10" stroke-linecap="round" stroke-linejoin="round"/>
<path d="M143.583 111.905L129.569 131.263" stroke="#263238" stroke-miterlimit="10" stroke-linecap="round" stroke-linejoin="round"/>
<path d="M146.195 85.1846L165.078 95.8729" stroke="#263238" stroke-miterlimit="10" stroke-linecap="round" stroke-linejoin="round"/>
<path d="M146.195 93.7353L165.078 104.424" stroke="#263238" stroke-miterlimit="10" stroke-linecap="round" stroke-linejoin="round"/>
<path d="M148.927 102.88L167.691 113.568" stroke="#263238" stroke-miterlimit="10" stroke-linecap="round" stroke-linejoin="round"/>
<path d="M149.521 111.905L168.285 122.713" stroke="#263238" stroke-miterlimit="10" stroke-linecap="round" stroke-linejoin="round"/>
<path d="M406.754 290.045L423.38 257.148L418.986 256.436L402.241 287.788L368.869 272.825L365.069 277.575L401.528 292.182" stroke="#263238" stroke-miterlimit="10" stroke-linecap="round" stroke-linejoin="round"/>
<path d="M402.241 287.788L388.465 237.434L360.794 225.202L369.107 270.093" stroke="#263238" stroke-miterlimit="10" stroke-linecap="round" stroke-linejoin="round"/>
<path d="M360.794 225.202L357.35 233.634L365.069 277.575" stroke="#263238" stroke-miterlimit="10" stroke-linecap="round" stroke-linejoin="round"/>
<path d="M388.465 237.434L403.666 211.663L416.967 252.398" stroke="#263238" stroke-miterlimit="10" stroke-linecap="round" stroke-linejoin="round"/>
<path d="M423.38 257.148L408.535 211.663H403.666" stroke="#263238" stroke-miterlimit="10" stroke-linecap="round" stroke-linejoin="round"/>
<path d="M399.391 270.331L411.267 249.666" stroke="#263238" stroke-miterlimit="10" stroke-linecap="round" stroke-linejoin="round"/>
<path d="M397.372 261.305L409.248 240.759" stroke="#263238" stroke-miterlimit="10" stroke-linecap="round" stroke-linejoin="round"/>
<path d="M395.353 252.398L407.347 231.734" stroke="#263238" stroke-miterlimit="10" stroke-linecap="round" stroke-linejoin="round"/>
<path d="M393.334 243.372L405.328 222.827" stroke="#263238" stroke-miterlimit="10" stroke-linecap="round" stroke-linejoin="round"/>
<path d="M393.452 270.331L373.62 261.542" stroke="#263238" stroke-miterlimit="10" stroke-linecap="round" stroke-linejoin="round"/>
<path d="M392.502 261.78L372.788 252.992" stroke="#263238" stroke-miterlimit="10" stroke-linecap="round" stroke-linejoin="round"/>
<path d="M388.94 252.992L369.226 244.203" stroke="#263238" stroke-miterlimit="10" stroke-linecap="round" stroke-linejoin="round"/>
<path d="M387.515 243.966L367.801 235.178" stroke="#263238" stroke-miterlimit="10" stroke-linecap="round" stroke-linejoin="round"/>
<path d="M334.667 307.146C331.341 315.34 327.897 308.809 328.491 274.25C328.729 258.098 329.916 225.083 347.73 232.328C364.95 239.334 342.267 288.145 342.267 288.145L334.667 307.146ZM359.25 312.015C359.25 312.015 396.54 273.181 382.527 261.067C368.038 248.36 356.162 279.238 350.699 294.439C338.942 326.86 340.13 334.223 345.949 327.573L359.25 312.015ZM367.088 346.93C367.088 346.93 401.172 322.704 392.265 311.303C383.002 299.545 369.463 321.397 363.05 332.204C349.393 355.362 349.155 361.063 354.618 356.788L367.088 346.93ZM376.351 381.608C376.351 381.608 410.435 357.381 401.528 345.98C392.265 334.223 378.726 356.075 372.313 366.882C358.656 390.04 358.419 395.741 363.881 391.465L376.351 381.608ZM316.734 311.778C316.734 311.778 268.993 286.957 261.273 303.821C253.198 321.397 286.094 324.01 302.245 324.96C336.686 327.098 343.455 324.01 335.379 320.21L316.734 311.778ZM323.503 339.092C323.503 339.092 271.843 324.247 267.568 342.299C263.173 361.063 295.951 357.144 311.984 354.887C346.186 350.137 352.124 345.743 343.455 343.724L323.503 339.092ZM335.26 369.02C335.26 369.02 291.201 357.619 287.994 373.058C284.669 389.09 312.34 384.933 325.76 382.677C354.499 377.808 359.487 374.008 352.124 372.464L335.26 369.02ZM342.267 393.603C342.267 393.603 299.633 377.57 294.882 392.534C289.894 408.092 317.803 406.904 331.46 406.073C360.556 404.291 365.9 401.085 358.775 398.71L342.267 393.603ZM313.646 268.906C313.646 268.906 294.17 208.457 272.08 219.383C249.041 230.784 275.643 258.098 288.944 271.162C317.328 299.07 326.116 300.971 322.316 291.232L313.646 268.906Z" fill="#C6FF00"/>
<path opacity="0.65" d="M334.667 307.146C331.341 315.34 327.897 308.809 328.491 274.25C328.729 258.098 329.916 225.083 347.73 232.328C364.95 239.334 342.267 288.145 342.267 288.145L334.667 307.146ZM359.25 312.015C359.25 312.015 396.54 273.181 382.527 261.067C368.038 248.36 356.162 279.238 350.699 294.439C338.942 326.86 340.13 334.223 345.949 327.573L359.25 312.015ZM367.088 346.93C367.088 346.93 401.172 322.704 392.265 311.303C383.002 299.545 369.463 321.397 363.05 332.204C349.393 355.362 349.155 361.063 354.618 356.788L367.088 346.93ZM376.351 381.608C376.351 381.608 410.435 357.381 401.528 345.98C392.265 334.223 378.726 356.075 372.313 366.882C358.656 390.04 358.419 395.741 363.881 391.465L376.351 381.608ZM316.734 311.778C316.734 311.778 268.993 286.957 261.273 303.821C253.198 321.397 286.094 324.01 302.245 324.96C336.686 327.098 343.455 324.01 335.379 320.21L316.734 311.778ZM323.503 339.092C323.503 339.092 271.843 324.247 267.568 342.299C263.173 361.063 295.951 357.144 311.984 354.887C346.186 350.137 352.124 345.743 343.455 343.724L323.503 339.092ZM335.26 369.02C335.26 369.02 291.201 357.619 287.994 373.058C284.669 389.09 312.34 384.933 325.76 382.677C354.499 377.808 359.487 374.008 352.124 372.464L335.26 369.02ZM342.267 393.603C342.267 393.603 299.633 377.57 294.882 392.534C289.894 408.092 317.803 406.904 331.46 406.073C360.556 404.291 365.9 401.085 358.775 398.71L342.267 393.603ZM313.646 268.906C313.646 268.906 294.17 208.457 272.08 219.383C249.041 230.784 275.643 258.098 288.944 271.162C317.328 299.07 326.116 300.971 322.316 291.232L313.646 268.906Z" fill="white"/>
<path d="M281.344 240.997C281.344 240.997 330.154 300.614 341.911 330.423C355.331 364.744 364.475 403.341 366.257 435.288" stroke="#CCCCCC" stroke-width="1.252" stroke-miterlimit="10" stroke-linecap="round" stroke-linejoin="round"/>
<path d="M332.173 310.946L339.061 254.061" stroke="#CCCCCC" stroke-width="1.252" stroke-miterlimit="10" stroke-linecap="round" stroke-linejoin="round"/>
<path d="M341.911 330.423L366.494 282.563" stroke="#CCCCCC" stroke-width="1.252" stroke-miterlimit="10" stroke-linecap="round" stroke-linejoin="round"/>
<path d="M338.348 323.297L286.807 312.847" stroke="#CCCCCC" stroke-width="1.252" stroke-miterlimit="10" stroke-linecap="round" stroke-linejoin="round"/>
<path d="M351.649 357.5L381.933 323.06" stroke="#CCCCCC" stroke-width="1.252" stroke-miterlimit="10" stroke-linecap="round" stroke-linejoin="round"/>
<path d="M347.374 346.218L308.54 345.862" stroke="#CCCCCC" stroke-width="1.252" stroke-miterlimit="10" stroke-linecap="round" stroke-linejoin="round"/>
<path d="M354.856 374.364L325.047 375.551" stroke="#CCCCCC" stroke-width="1.252" stroke-miterlimit="10" stroke-linecap="round" stroke-linejoin="round"/>
<path d="M361.031 392.415L376.945 371.157" stroke="#CCCCCC" stroke-width="1.252" stroke-miterlimit="10" stroke-linecap="round" stroke-linejoin="round"/>
<path d="M362.1 400.253L327.304 398.591" stroke="#CCCCCC" stroke-width="1.252" stroke-miterlimit="10" stroke-linecap="round" stroke-linejoin="round"/>
<path d="M428.724 354.294C422.667 356.55 424.568 351.443 443.213 334.817C451.882 326.979 470.053 311.421 474.922 324.485C479.672 337.073 442.5 349.068 442.5 349.068L428.724 354.294ZM438.106 369.732C438.106 369.732 477.059 370.445 476.703 357.025C476.347 343.011 454.139 351.918 443.332 356.55C420.292 366.288 416.967 370.445 423.38 370.326L438.106 369.732ZM423.499 390.99C423.499 390.99 453.189 397.166 454.851 386.834C456.514 376.145 438.344 379.708 429.437 381.608C410.435 385.646 407.229 388.377 412.217 389.209L423.499 390.99ZM409.485 412.961C409.485 412.961 439.175 419.136 440.838 408.804C442.5 398.116 424.33 401.679 415.423 403.579C396.422 407.617 393.215 410.348 398.203 411.179L409.485 412.961ZM417.442 347.049C417.442 347.049 407.229 309.402 394.403 313.559C381.102 317.834 395.947 336.717 403.31 345.743C419.105 365.101 424.093 367.12 422.074 361.063L417.442 347.049ZM406.16 364.032C406.16 364.032 388.702 329.235 376.945 335.767C364.832 342.655 383.002 358.094 392.028 365.576C411.385 381.371 416.611 382.44 413.523 376.858L406.16 364.032ZM396.065 384.933C396.065 384.933 380.389 355.956 370.77 361.775C360.675 367.832 376.351 380.539 384.189 386.596C400.935 399.541 405.447 400.253 402.597 395.622L396.065 384.933ZM386.446 400.728C386.446 400.728 373.976 370.207 363.644 374.958C352.956 379.946 367.207 394.197 374.451 401.085C389.652 415.692 394.046 416.999 391.79 412.011L386.446 400.728ZM438.7 324.247C438.7 324.247 461.264 284.225 444.638 277.812C427.299 271.162 425.755 298.714 425.399 312.253C424.568 340.992 427.774 346.693 431.099 339.924L438.7 324.247Z" fill="#C6FF00"/>
<path opacity="0.65" d="M428.724 354.294C422.667 356.55 424.568 351.443 443.213 334.817C451.882 326.979 470.053 311.421 474.922 324.485C479.672 337.073 442.5 349.068 442.5 349.068L428.724 354.294ZM438.106 369.732C438.106 369.732 477.059 370.445 476.703 357.025C476.347 343.011 454.139 351.918 443.332 356.55C420.292 366.288 416.967 370.445 423.38 370.326L438.106 369.732ZM423.499 390.99C423.499 390.99 453.189 397.166 454.851 386.834C456.514 376.145 438.344 379.708 429.437 381.608C410.435 385.646 407.229 388.377 412.217 389.209L423.499 390.99ZM409.485 412.961C409.485 412.961 439.175 419.136 440.838 408.804C442.5 398.116 424.33 401.679 415.423 403.579C396.422 407.617 393.215 410.348 398.203 411.179L409.485 412.961ZM417.442 347.049C417.442 347.049 407.229 309.402 394.403 313.559C381.102 317.834 395.947 336.717 403.31 345.743C419.105 365.101 424.093 367.12 422.074 361.063L417.442 347.049ZM406.16 364.032C406.16 364.032 388.702 329.235 376.945 335.767C364.832 342.655 383.002 358.094 392.028 365.576C411.385 381.371 416.611 382.44 413.523 376.858L406.16 364.032ZM396.065 384.933C396.065 384.933 380.389 355.956 370.77 361.775C360.675 367.832 376.351 380.539 384.189 386.596C400.935 399.541 405.447 400.253 402.597 395.622L396.065 384.933ZM386.446 400.728C386.446 400.728 373.976 370.207 363.644 374.958C352.956 379.946 367.207 394.197 374.451 401.085C389.652 415.692 394.046 416.999 391.79 412.011L386.446 400.728ZM438.7 324.247C438.7 324.247 461.264 284.225 444.638 277.812C427.299 271.162 425.755 298.714 425.399 312.253C424.568 340.992 427.774 346.693 431.099 339.924L438.7 324.247Z" fill="#E5E5E5"/>
<path d="M437.75 293.37C437.75 293.37 430.03 348.712 419.936 369.613C408.298 393.603 390.721 419.136 374.57 435.881" stroke="#CCCCCC" stroke-width="1.252" stroke-miterlimit="10" stroke-linecap="round" stroke-linejoin="round"/>
<path d="M425.399 354.769L459.008 330.423" stroke="#CCCCCC" stroke-width="1.252" stroke-miterlimit="10" stroke-linecap="round" stroke-linejoin="round"/>
<path d="M419.936 369.495L457.345 359.163" stroke="#CCCCCC" stroke-width="1.252" stroke-miterlimit="10" stroke-linecap="round" stroke-linejoin="round"/>
<path d="M421.836 364.151L402.122 331.61" stroke="#CCCCCC" stroke-width="1.252" stroke-miterlimit="10" stroke-linecap="round" stroke-linejoin="round"/>
<path d="M410.198 388.021L443.45 387.19" stroke="#CCCCCC" stroke-width="1.252" stroke-miterlimit="10" stroke-linecap="round" stroke-linejoin="round"/>
<path d="M414.117 380.183L395.234 359.281" stroke="#CCCCCC" stroke-width="1.252" stroke-miterlimit="10" stroke-linecap="round" stroke-linejoin="round"/>
<path d="M402.835 397.997L387.515 382.796" stroke="#CCCCCC" stroke-width="1.252" stroke-miterlimit="10" stroke-linecap="round" stroke-linejoin="round"/>
<path d="M396.303 410.11L415.423 408.21" stroke="#CCCCCC" stroke-width="1.252" stroke-miterlimit="10" stroke-linecap="round" stroke-linejoin="round"/>
<path d="M392.621 414.623L376.47 395.266" stroke="#CCCCCC" stroke-width="1.252" stroke-miterlimit="10" stroke-linecap="round" stroke-linejoin="round"/>
<path d="M142.039 307.146C145.364 315.34 148.808 308.809 148.214 274.25C147.977 258.098 146.789 225.083 128.975 232.328C111.755 239.334 134.438 288.145 134.438 288.145L142.039 307.146ZM117.455 312.015C117.455 312.015 80.165 273.181 94.1786 261.067C108.667 248.36 120.543 279.238 126.006 294.439C137.763 326.86 136.576 334.223 130.757 327.573L117.455 312.015ZM109.617 346.93C109.617 346.93 75.5334 322.704 84.4404 311.303C93.7036 299.545 107.242 321.397 113.655 332.204C127.313 355.362 127.55 361.063 122.087 356.788L109.617 346.93ZM100.354 381.608C100.354 381.608 66.2702 357.381 75.1771 345.98C84.4404 334.223 97.9789 356.075 104.392 366.882C118.049 390.04 118.287 395.741 112.824 391.465L100.354 381.608ZM159.971 311.778C159.971 311.778 207.713 286.957 215.432 303.821C223.508 321.397 190.611 324.01 174.46 324.96C140.02 327.098 133.25 324.01 141.326 320.21L159.971 311.778ZM153.202 339.092C153.202 339.092 204.862 324.247 209.138 342.299C213.532 361.063 180.754 357.144 164.722 354.887C130.519 350.137 124.581 345.743 133.25 343.724L153.202 339.092ZM141.445 369.02C141.445 369.02 185.505 357.619 188.711 373.058C192.036 389.09 164.365 384.933 150.946 382.677C122.206 377.808 117.218 374.008 124.581 372.464L141.445 369.02ZM134.557 393.603C134.557 393.603 177.191 377.57 181.942 392.534C186.93 408.092 159.021 406.904 145.364 406.073C116.268 404.291 110.924 401.085 118.049 398.71L134.557 393.603ZM163.059 268.906C163.059 268.906 182.536 208.457 204.625 219.383C227.664 230.784 201.062 258.098 187.761 271.162C159.378 299.07 150.589 300.971 154.39 291.232L163.059 268.906Z" fill="#C6FF00"/>
<path opacity="0.65" d="M142.039 307.146C145.364 315.34 148.808 308.809 148.214 274.25C147.977 258.098 146.789 225.083 128.975 232.328C111.755 239.334 134.438 288.145 134.438 288.145L142.039 307.146ZM117.455 312.015C117.455 312.015 80.165 273.181 94.1786 261.067C108.667 248.36 120.543 279.238 126.006 294.439C137.763 326.86 136.576 334.223 130.757 327.573L117.455 312.015ZM109.617 346.93C109.617 346.93 75.5334 322.704 84.4404 311.303C93.7036 299.545 107.242 321.397 113.655 332.204C127.313 355.362 127.55 361.063 122.087 356.788L109.617 346.93ZM100.354 381.608C100.354 381.608 66.2702 357.381 75.1771 345.98C84.4404 334.223 97.9789 356.075 104.392 366.882C118.049 390.04 118.287 395.741 112.824 391.465L100.354 381.608ZM159.971 311.778C159.971 311.778 207.713 286.957 215.432 303.821C223.508 321.397 190.611 324.01 174.46 324.96C140.02 327.098 133.25 324.01 141.326 320.21L159.971 311.778ZM153.202 339.092C153.202 339.092 204.862 324.247 209.138 342.299C213.532 361.063 180.754 357.144 164.722 354.887C130.519 350.137 124.581 345.743 133.25 343.724L153.202 339.092ZM141.445 369.02C141.445 369.02 185.505 357.619 188.711 373.058C192.036 389.09 164.365 384.933 150.946 382.677C122.206 377.808 117.218 374.008 124.581 372.464L141.445 369.02ZM134.557 393.603C134.557 393.603 177.191 377.57 181.942 392.534C186.93 408.092 159.021 406.904 145.364 406.073C116.268 404.291 110.924 401.085 118.049 398.71L134.557 393.603ZM163.059 268.906C163.059 268.906 182.536 208.457 204.625 219.383C227.664 230.784 201.062 258.098 187.761 271.162C159.378 299.07 150.589 300.971 154.39 291.232L163.059 268.906Z" fill="white"/>
<path d="M195.362 240.997C195.362 240.997 146.552 300.614 134.794 330.423C121.375 364.744 112.23 403.341 110.449 435.288" stroke="#CCCCCC" stroke-width="1.252" stroke-miterlimit="10" stroke-linecap="round" stroke-linejoin="round"/>
<path d="M144.533 310.946L137.763 254.061" stroke="#CCCCCC" stroke-width="1.252" stroke-miterlimit="10" stroke-linecap="round" stroke-linejoin="round"/>
<path d="M134.794 330.423L110.211 282.563" stroke="#CCCCCC" stroke-width="1.252" stroke-miterlimit="10" stroke-linecap="round" stroke-linejoin="round"/>
<path d="M138.357 323.297L189.899 312.847" stroke="#CCCCCC" stroke-width="1.252" stroke-miterlimit="10" stroke-linecap="round" stroke-linejoin="round"/>
<path d="M125.175 357.5L94.8911 323.06" stroke="#CCCCCC" stroke-width="1.252" stroke-miterlimit="10" stroke-linecap="round" stroke-linejoin="round"/>
<path d="M129.332 346.218L168.166 345.862" stroke="#CCCCCC" stroke-width="1.252" stroke-miterlimit="10" stroke-linecap="round" stroke-linejoin="round"/>
<path d="M121.85 374.364L151.658 375.551" stroke="#CCCCCC" stroke-width="1.252" stroke-miterlimit="10" stroke-linecap="round" stroke-linejoin="round"/>
<path d="M115.793 392.415L99.7603 371.157" stroke="#CCCCCC" stroke-width="1.252" stroke-miterlimit="10" stroke-linecap="round" stroke-linejoin="round"/>
<path d="M114.605 400.253L149.402 398.591" stroke="#CCCCCC" stroke-width="1.252" stroke-miterlimit="10" stroke-linecap="round" stroke-linejoin="round"/>
<path d="M48.1 354.294C54.1567 356.55 52.2566 351.443 33.6113 334.817C24.9419 326.979 6.77172 311.421 1.90258 324.485C-2.8478 337.073 34.3239 349.068 34.3239 349.068L48.1 354.294ZM38.5992 369.732C38.5992 369.732 -0.353849 370.445 0.00242917 357.025C0.358708 343.011 22.5667 351.918 33.3738 356.55C56.4132 366.288 59.7384 370.445 53.3254 370.326L38.5992 369.732ZM53.2067 390.99C53.2067 390.99 23.5168 397.166 21.8542 386.834C20.1915 376.145 38.3617 379.708 47.2687 381.608C66.2702 385.646 69.4767 388.377 64.4888 389.209L53.2067 390.99ZM67.2203 412.961C67.2203 412.961 37.5304 419.136 35.8678 408.804C34.2051 398.116 52.3753 401.679 61.2823 403.579C80.2838 407.617 83.4903 410.348 78.5024 411.179L67.2203 412.961ZM59.2634 347.049C59.2634 347.049 69.4767 309.402 82.3027 313.559C95.6038 317.834 80.7588 336.717 73.3958 345.743C57.6008 365.101 52.6129 367.12 54.6318 361.063L59.2634 347.049ZM70.5455 364.032C70.5455 364.032 88.0032 329.235 99.7604 335.767C111.874 342.655 93.7036 358.094 84.6779 365.576C65.3201 381.371 60.0947 382.44 63.1825 376.858L70.5455 364.032ZM80.6401 384.933C80.6401 384.933 96.3163 355.956 105.936 361.775C116.03 367.832 100.354 380.539 92.516 386.596C75.771 399.541 71.2581 400.253 74.1083 395.622L80.6401 384.933ZM90.2596 400.728C90.2596 400.728 102.729 370.207 113.061 374.958C123.75 379.946 109.499 394.197 102.254 401.085C87.0531 415.692 82.659 416.999 84.9154 412.011L90.2596 400.728ZM38.0054 324.247C38.0054 324.247 15.4412 284.225 32.0675 277.812C49.4064 271.162 50.9502 298.714 51.3065 312.253C52.1378 340.992 48.9313 346.693 45.6061 339.924L38.0054 324.247Z" fill="#C6FF00"/>
<path opacity="0.65" d="M48.1 354.294C54.1567 356.55 52.2566 351.443 33.6113 334.817C24.9419 326.979 6.77172 311.421 1.90258 324.485C-2.8478 337.073 34.3239 349.068 34.3239 349.068L48.1 354.294ZM38.5992 369.732C38.5992 369.732 -0.353849 370.445 0.00242917 357.025C0.358708 343.011 22.5667 351.918 33.3738 356.55C56.4132 366.288 59.7384 370.445 53.3254 370.326L38.5992 369.732ZM53.2067 390.99C53.2067 390.99 23.5168 397.166 21.8542 386.834C20.1915 376.145 38.3617 379.708 47.2687 381.608C66.2702 385.646 69.4767 388.377 64.4888 389.209L53.2067 390.99ZM67.2203 412.961C67.2203 412.961 37.5304 419.136 35.8678 408.804C34.2051 398.116 52.3753 401.679 61.2823 403.579C80.2838 407.617 83.4903 410.348 78.5024 411.179L67.2203 412.961ZM59.2634 347.049C59.2634 347.049 69.4767 309.402 82.3027 313.559C95.6038 317.834 80.7588 336.717 73.3958 345.743C57.6008 365.101 52.6129 367.12 54.6318 361.063L59.2634 347.049ZM70.5455 364.032C70.5455 364.032 88.0032 329.235 99.7604 335.767C111.874 342.655 93.7036 358.094 84.6779 365.576C65.3201 381.371 60.0947 382.44 63.1825 376.858L70.5455 364.032ZM80.6401 384.933C80.6401 384.933 96.3163 355.956 105.936 361.775C116.03 367.832 100.354 380.539 92.516 386.596C75.771 399.541 71.2581 400.253 74.1083 395.622L80.6401 384.933ZM90.2596 400.728C90.2596 400.728 102.729 370.207 113.061 374.958C123.75 379.946 109.499 394.197 102.254 401.085C87.0531 415.692 82.659 416.999 84.9154 412.011L90.2596 400.728ZM38.0054 324.247C38.0054 324.247 15.4412 284.225 32.0675 277.812C49.4064 271.162 50.9502 298.714 51.3065 312.253C52.1378 340.992 48.9313 346.693 45.6061 339.924L38.0054 324.247Z" fill="#E5E5E5"/>
<path d="M39.0742 293.37C39.0742 293.37 46.7936 348.712 56.8881 369.614C68.5266 393.484 85.9842 419.136 102.135 435.763" stroke="#CCCCCC" stroke-width="1.252" stroke-miterlimit="10" stroke-linecap="round" stroke-linejoin="round"/>
<path d="M51.3064 354.769L17.6975 330.423" stroke="#CCCCCC" stroke-width="1.252" stroke-miterlimit="10" stroke-linecap="round" stroke-linejoin="round"/>
<path d="M56.8881 369.495L19.3601 359.163" stroke="#CCCCCC" stroke-width="1.252" stroke-miterlimit="10" stroke-linecap="round" stroke-linejoin="round"/>
<path d="M54.8694 364.151L74.5834 331.61" stroke="#CCCCCC" stroke-width="1.252" stroke-miterlimit="10" stroke-linecap="round" stroke-linejoin="round"/>
<path d="M66.5078 388.021L33.2551 387.19" stroke="#CCCCCC" stroke-width="1.252" stroke-miterlimit="10" stroke-linecap="round" stroke-linejoin="round"/>
<path d="M62.5886 380.183L81.4714 359.281" stroke="#CCCCCC" stroke-width="1.252" stroke-miterlimit="10" stroke-linecap="round" stroke-linejoin="round"/>
<path d="M73.8708 397.997L89.1908 382.796" stroke="#CCCCCC" stroke-width="1.252" stroke-miterlimit="10" stroke-linecap="round" stroke-linejoin="round"/>
<path d="M80.4025 410.11L61.2822 408.21" stroke="#CCCCCC" stroke-width="1.252" stroke-miterlimit="10" stroke-linecap="round" stroke-linejoin="round"/>
<path d="M84.0842 414.623L100.354 395.266" stroke="#CCCCCC" stroke-width="1.252" stroke-miterlimit="10" stroke-linecap="round" stroke-linejoin="round"/>
<path d="M284.432 303.108H158.903V328.76H284.432V303.108Z" fill="white" stroke="#263238" stroke-miterlimit="10" stroke-linecap="round" stroke-linejoin="round"/>
<path d="M160.209 309.759H182.179" stroke="#263238" stroke-miterlimit="10" stroke-linecap="round" stroke-linejoin="round"/>
<path d="M189.543 316.766H192.512" stroke="#263238" stroke-miterlimit="10" stroke-linecap="round" stroke-linejoin="round"/>
<path d="M159.853 316.766H184.555" stroke="#263238" stroke-miterlimit="10" stroke-linecap="round" stroke-linejoin="round"/>
<path d="M160.328 324.129H170.541" stroke="#263238" stroke-miterlimit="10" stroke-linecap="round" stroke-linejoin="round"/>
<path d="M258.661 304.058C258.661 304.058 255.098 314.984 258.661 328.285H309.252C309.252 328.285 303.908 312.965 309.252 304.058H258.661Z" fill="white"/>
<path opacity="0.24" d="M258.661 304.058C258.661 304.058 255.098 314.984 258.661 328.285H309.252C309.252 328.285 303.908 312.965 309.252 304.058H258.661Z" fill="black" stroke="#263238" stroke-miterlimit="10" stroke-linecap="round" stroke-linejoin="round"/>
<path d="M258.661 304.058C258.661 304.058 255.098 314.984 258.661 328.285H309.252C309.252 328.285 303.908 312.965 309.252 304.058H258.661Z" stroke="#263238" stroke-miterlimit="10" stroke-linecap="round" stroke-linejoin="round"/>
<path d="M160.328 324.129V306.552C160.328 305.602 161.04 304.89 161.99 304.89H311.271C311.984 304.89 312.459 304.296 312.459 303.702C312.459 302.989 311.865 302.514 311.271 302.514H157.953C157.003 302.514 156.29 303.227 156.29 304.177V326.504C156.29 327.929 157.478 329.117 158.903 329.117H311.271C311.984 329.117 312.459 328.523 312.459 327.929C312.459 327.216 311.865 326.741 311.271 326.741H162.941C161.515 326.741 160.328 325.554 160.328 324.129Z" fill="#263238" stroke="#263238" stroke-miterlimit="10" stroke-linecap="round" stroke-linejoin="round"/>
<path d="M284.432 356.194H158.903V381.846H284.432V356.194Z" fill="white" stroke="#263238" stroke-miterlimit="10" stroke-linecap="round" stroke-linejoin="round"/>
<path d="M160.922 361.182H183.011" stroke="#263238" stroke-miterlimit="10" stroke-linecap="round" stroke-linejoin="round"/>
<path d="M190.374 368.188H193.343" stroke="#263238" stroke-miterlimit="10" stroke-linecap="round" stroke-linejoin="round"/>
<path d="M160.565 368.188H185.386" stroke="#263238" stroke-miterlimit="10" stroke-linecap="round" stroke-linejoin="round"/>
<path d="M161.159 375.433H171.254" stroke="#263238" stroke-miterlimit="10" stroke-linecap="round" stroke-linejoin="round"/>
<path d="M259.373 357.025C259.373 357.025 255.81 367.951 259.373 381.252H309.133C309.133 381.252 303.789 365.932 309.133 357.025H259.373Z" fill="white"/>
<path opacity="0.24" d="M259.373 357.025C259.373 357.025 255.81 367.951 259.373 381.252H309.133C309.133 381.252 303.789 365.932 309.133 357.025H259.373Z" fill="black" stroke="#263238" stroke-miterlimit="10" stroke-linecap="round" stroke-linejoin="round"/>
<path d="M259.373 357.025C259.373 357.025 255.81 367.951 259.373 381.252H309.133C309.133 381.252 303.789 365.932 309.133 357.025H259.373Z" stroke="#263238" stroke-miterlimit="10" stroke-linecap="round" stroke-linejoin="round"/>
<path d="M160.328 377.095V359.519C160.328 358.569 161.04 357.856 161.99 357.856H311.271C311.984 357.856 312.459 357.262 312.459 356.669C312.459 355.956 311.865 355.481 311.271 355.481H157.953C157.003 355.481 156.29 356.194 156.29 357.144V379.589C156.29 381.014 157.478 382.202 158.903 382.202H311.271C311.984 382.202 312.459 381.608 312.459 381.014C312.459 380.302 311.865 379.827 311.271 379.827H162.941C161.515 379.708 160.328 378.52 160.328 377.095Z" fill="#263238" stroke="#263238" stroke-miterlimit="10" stroke-linecap="round" stroke-linejoin="round"/>
<path d="M160.447 406.31C161.278 403.341 164.603 391.109 160.565 383.39H305.096V406.31H160.447Z" fill="white" stroke="#263238" stroke-miterlimit="10" stroke-linecap="round" stroke-linejoin="round"/>
<path d="M246.666 388.496H224.695" stroke="#263238" stroke-miterlimit="10" stroke-linecap="round" stroke-linejoin="round"/>
<path d="M217.332 395.503H214.363" stroke="#263238" stroke-miterlimit="10" stroke-linecap="round" stroke-linejoin="round"/>
<path d="M247.022 395.503H222.32" stroke="#263238" stroke-miterlimit="10" stroke-linecap="round" stroke-linejoin="round"/>
<path d="M246.547 402.747H236.334" stroke="#263238" stroke-miterlimit="10" stroke-linecap="round" stroke-linejoin="round"/>
<path d="M247.497 404.054V386.477C247.497 385.527 246.785 384.815 245.835 384.815H157.478C156.765 384.815 156.29 384.221 156.29 383.627C156.29 382.915 156.884 382.44 157.478 382.44H310.796C311.746 382.44 312.459 383.152 312.459 384.102V406.548C312.459 407.973 311.271 409.16 309.846 409.16H157.478C156.765 409.16 156.29 408.567 156.29 407.973C156.29 407.26 156.884 406.785 157.478 406.785H244.885C246.31 406.666 247.497 405.479 247.497 404.054Z" fill="#263238" stroke="#263238" stroke-miterlimit="10" stroke-linecap="round" stroke-linejoin="round"/>
<path d="M160.447 433.269C161.278 430.3 164.603 418.067 160.565 410.348H305.096V433.269H160.447Z" fill="white" stroke="#263238" stroke-miterlimit="10" stroke-linecap="round" stroke-linejoin="round"/>
<path d="M246.666 415.573H224.577" stroke="#263238" stroke-miterlimit="10" stroke-linecap="round" stroke-linejoin="round"/>
<path d="M217.214 422.58H214.245" stroke="#263238" stroke-miterlimit="10" stroke-linecap="round" stroke-linejoin="round"/>
<path d="M247.022 422.58H222.32" stroke="#263238" stroke-miterlimit="10" stroke-linecap="round" stroke-linejoin="round"/>
<path d="M246.429 429.825H236.334" stroke="#263238" stroke-miterlimit="10" stroke-linecap="round" stroke-linejoin="round"/>
<path d="M247.497 431.012V413.436C247.497 412.486 246.785 411.773 245.835 411.773H157.478C156.765 411.773 156.29 411.179 156.29 410.585C156.29 409.873 156.884 409.398 157.478 409.398H310.796C311.746 409.398 312.459 410.11 312.459 411.061V433.387C312.459 434.812 311.271 436 309.846 436H157.478C156.765 436 156.29 435.406 156.29 434.812C156.29 434.1 156.884 433.625 157.478 433.625H244.885C246.31 433.625 247.497 432.437 247.497 431.012Z" fill="#86BDFF" stroke="#263238" stroke-miterlimit="10" stroke-linecap="round" stroke-linejoin="round"/>
<path d="M160.447 352.512C161.278 349.543 164.603 337.311 160.565 329.592H305.096V352.512H160.447Z" fill="white" stroke="#263238" stroke-miterlimit="10" stroke-linecap="round" stroke-linejoin="round"/>
<path d="M247.022 334.698H224.933" stroke="#263238" stroke-miterlimit="10" stroke-linecap="round" stroke-linejoin="round"/>
<path d="M217.689 341.705H214.601" stroke="#263238" stroke-miterlimit="10" stroke-linecap="round" stroke-linejoin="round"/>
<path d="M247.378 341.705H222.677" stroke="#263238" stroke-miterlimit="10" stroke-linecap="round" stroke-linejoin="round"/>
<path d="M246.903 348.949H236.69" stroke="#263238" stroke-miterlimit="10" stroke-linecap="round" stroke-linejoin="round"/>
<path d="M247.497 350.256V332.679C247.497 331.729 246.785 331.017 245.835 331.017H157.478C156.765 331.017 156.29 330.423 156.29 329.829C156.29 329.116 156.884 328.641 157.478 328.641H310.796C311.746 328.641 312.459 329.354 312.459 330.304V352.631C312.459 354.056 311.271 355.244 309.846 355.244H157.478C156.765 355.244 156.29 354.65 156.29 354.056C156.29 353.343 156.884 352.868 157.478 352.868H244.885C246.31 352.868 247.497 351.681 247.497 350.256Z" fill="#86BDFF" stroke="#263238" stroke-miterlimit="10" stroke-linecap="round" stroke-linejoin="round"/>
<path d="M213.532 245.629C213.532 245.629 201.3 245.985 183.486 241.71C165.672 237.315 151.064 240.522 148.214 257.505C145.483 274.487 190.968 291.945 222.676 298.239C254.385 304.533 285.975 307.384 301.414 300.614C316.853 293.845 316.496 269.737 310.558 258.692C304.62 247.648 284.788 245.985 274.574 247.648C264.123 249.191 213.532 245.629 213.532 245.629Z" fill="#263238" stroke="#263238" stroke-miterlimit="10" stroke-linecap="round" stroke-linejoin="round"/>
<path d="M293.457 171.166C291.794 159.766 290.013 148.365 288.35 136.964C286.806 126.394 286.094 114.993 283.362 104.661C279.8 89.2224 274.455 80.9093 258.423 77.9403C242.39 74.9713 224.577 92.1914 224.577 99.9108C224.577 107.63 230.039 125.088 221.608 152.521C218.757 161.903 229.921 163.21 243.459 159.053L293.457 171.166Z" fill="#263238" stroke="#263238" stroke-miterlimit="10" stroke-linecap="round" stroke-linejoin="round"/>
<path d="M250.466 147.415C250.466 147.415 230.87 150.146 221.607 152.521C212.344 154.896 209.137 158.222 205.812 164.516C202.487 170.81 197.618 194.087 192.867 203.944C188.117 213.801 179.448 216.414 178.022 226.746C176.597 237.078 184.911 240.759 191.086 241.947C197.262 243.135 205.1 243.491 205.1 243.491C205.1 243.491 215.194 267.243 234.79 269.024C254.385 270.806 268.992 257.148 277.899 252.042C286.806 246.935 287.4 235.415 287.756 221.995C288.113 208.576 295.951 178.648 293.813 170.335C291.675 162.022 288.588 160.597 275.168 153.709C269.23 150.74 258.779 146.821 250.466 147.415Z" fill="#86BDFF" stroke="#263238" stroke-miterlimit="10" stroke-linecap="round" stroke-linejoin="round"/>
<path d="M188.83 210.001C184.317 215.464 179.092 218.908 178.023 226.746C177.785 228.527 177.785 230.071 178.023 231.496C179.21 233.278 183.011 237.672 190.255 235.534C199.281 232.921 198.331 220.333 192.868 212.495C191.68 210.951 190.374 210.238 188.83 210.001Z" fill="white" stroke="#263238" stroke-miterlimit="10" stroke-linecap="round" stroke-linejoin="round"/>
<path d="M249.041 187.555C257.354 183.755 261.867 177.223 265.667 164.753C267.449 158.934 268.518 154.303 268.993 151.096C263.411 148.958 256.285 147.058 250.347 147.533C250.347 147.533 241.916 148.721 233.484 150.146C232.771 154.54 231.108 167.01 233.009 176.273C235.503 187.555 240.728 191.356 249.041 187.555Z" fill="white" stroke="#263238" stroke-miterlimit="10" stroke-linecap="round" stroke-linejoin="round"/>
<path d="M209.732 230.902C209.732 230.902 215.67 216.058 215.67 211.901C215.67 207.744 212.938 203.588 210.919 198.244C208.9 192.899 214.245 183.992 214.245 183.992C214.245 183.992 217.57 158.222 220.776 153.709" stroke="#263238" stroke-miterlimit="10" stroke-linecap="round" stroke-linejoin="round"/>
<path d="M181.586 201.806L186.099 197.056C186.099 197.056 188.83 198.719 195.362 200.975C207.356 205.013 212.938 207.507 213.532 214.632C213.532 214.632 221.608 209.526 229.565 210.476C237.521 211.426 244.766 214.632 247.141 214.989C249.516 215.345 249.516 215.345 249.516 215.345L250.11 219.502L245.597 243.016L210.801 239.453L187.049 218.67L181.586 201.806Z" fill="white" stroke="#263238" stroke-miterlimit="10" stroke-linecap="round" stroke-linejoin="round"/>
<path d="M180.042 200.856L208.306 224.964L211.275 220.214L251.654 219.264L249.278 245.391L210.919 243.61L208.306 245.391L187.524 229.952L180.042 200.856Z" fill="#263238" stroke="#263238" stroke-miterlimit="10" stroke-linecap="round" stroke-linejoin="round"/>
<path d="M278.375 192.899L277.781 226.746C277.781 226.746 260.204 236.603 250.466 239.216C240.728 241.828 234.671 241.947 233.84 241.947C233.008 241.947 229.089 235.653 226.952 233.634C224.814 231.615 223.151 231.496 219.351 229.596C214.007 226.983 211.751 226.508 212.107 227.696C212.463 228.884 212.701 230.071 215.432 231.615C218.164 233.159 219.945 234.346 219.945 234.346L220.539 235.534C220.539 235.534 214.007 234.584 211.276 233.99C208.544 233.396 201.775 228.646 201.775 228.646C201.775 228.646 198.925 228.527 200.943 232.09C202.962 235.653 204.981 235.772 204.981 235.772C204.981 235.772 205.575 239.334 207.95 241.472C210.325 243.61 212.107 244.797 212.107 244.797C212.107 244.797 206.406 243.253 207 244.797C207.594 246.341 211.157 246.935 215.67 248.954C220.182 250.973 230.277 251.329 235.859 252.279C241.44 253.229 254.86 254.061 266.736 252.873C278.612 251.685 296.426 243.61 299.751 240.997C303.077 238.384 300.939 208.338 300.108 201.45C299.276 194.562 297.376 181.855 296.189 175.917C295.001 169.979 290.251 161.666 287.282 159.884C284.313 158.103 278.968 163.447 278.375 192.899Z" fill="white" stroke="#263238" stroke-miterlimit="10" stroke-linecap="round" stroke-linejoin="round"/>
<path d="M204.981 235.653C204.981 235.653 212.107 239.809 217.332 240.997Z" fill="white"/>
<path d="M204.981 235.653C204.981 235.653 212.107 239.809 217.332 240.997" stroke="#263238" stroke-miterlimit="10" stroke-linecap="round" stroke-linejoin="round"/>
<path d="M212.107 244.56C212.107 244.56 215.907 245.985 219.113 245.985Z" fill="white"/>
<path d="M212.107 244.56C212.107 244.56 215.907 245.985 219.113 245.985" stroke="#263238" stroke-miterlimit="10" stroke-linecap="round" stroke-linejoin="round"/>
<path d="M205.931 238.622C205.931 238.622 210.919 242.422 218.282 244.204Z" fill="white"/>
<path d="M205.931 238.622C205.931 238.622 210.919 242.422 218.282 244.204" stroke="#263238" stroke-miterlimit="10" stroke-linecap="round" stroke-linejoin="round"/>
<path d="M270.299 252.042C281.938 249.904 296.782 243.135 299.751 240.641C303.077 237.909 300.939 207.982 300.108 201.094C299.276 194.206 297.376 181.499 296.189 175.561C295.001 169.623 290.251 161.309 287.282 159.528C284.313 157.747 278.969 163.447 278.375 192.781L277.781 226.627C277.781 226.627 271.012 230.427 263.53 233.99C266.261 237.197 271.249 243.847 270.299 252.042Z" fill="#86BDFF" stroke="#263238" stroke-miterlimit="10" stroke-linecap="round" stroke-linejoin="round"/>
<path d="M239.897 143.971C239.897 143.971 237.284 159.409 236.928 168.91C236.69 178.411 243.816 188.03 253.91 175.798C264.005 163.566 262.461 143.377 262.461 143.377C262.461 143.377 252.129 148.958 239.897 143.971Z" fill="white" stroke="#263238" stroke-miterlimit="10" stroke-linecap="round" stroke-linejoin="round"/>
<path d="M240.728 150.621C240.728 150.621 241.203 158.815 240.49 163.328" stroke="#263238" stroke-miterlimit="10" stroke-linecap="round" stroke-linejoin="round"/>
<path d="M180.873 223.539C180.873 223.539 180.161 225.677 181.348 227.577C182.536 229.477 188.83 233.278 188.83 231.853C188.83 230.309 185.624 228.29 185.505 227.221C185.386 226.152 184.436 224.608 184.436 224.608C184.436 224.608 182.179 221.758 180.873 223.539Z" fill="white" stroke="#263238" stroke-miterlimit="10" stroke-linecap="round" stroke-linejoin="round"/>
<path d="M177.785 214.751C177.785 214.751 177.548 219.145 178.26 221.164C178.973 223.183 186.93 228.765 188.949 227.696C190.968 226.627 184.673 221.164 183.248 219.502C181.823 217.839 177.785 214.751 177.785 214.751Z" fill="white" stroke="#263238" stroke-miterlimit="10" stroke-linecap="round" stroke-linejoin="round"/>
<path d="M177.785 209.407C177.785 209.407 177.192 213.801 177.785 215.939C178.379 218.076 185.98 224.133 187.999 223.183C190.136 222.233 184.198 216.414 182.892 214.632C181.586 212.732 177.785 209.407 177.785 209.407Z" fill="white" stroke="#263238" stroke-miterlimit="10" stroke-linecap="round" stroke-linejoin="round"/>
<path d="M181.467 204.419C181.467 204.419 176.954 202.044 176.241 205.013C175.529 207.982 178.973 211.188 182.061 213.801C185.267 216.414 186.573 215.939 186.573 213.445C186.573 211.07 181.467 204.419 181.467 204.419Z" fill="white" stroke="#263238" stroke-miterlimit="10" stroke-linecap="round" stroke-linejoin="round"/>
<path d="M180.992 298.714C180.992 298.714 175.054 301.921 164.009 302.277C152.965 302.633 143.82 296.695 148.927 291.945C154.034 287.194 161.99 284.463 169.116 285.651C176.242 286.838 186.93 289.57 186.93 289.57L180.992 298.714Z" fill="white" stroke="#263238" stroke-miterlimit="10" stroke-linecap="round" stroke-linejoin="round"/>
<path d="M182.655 288.738C183.248 288.857 183.723 288.857 184.317 288.857C180.636 287.907 174.104 286.363 169.235 285.532C162.109 284.344 154.152 287.076 149.046 291.826C146.433 294.201 147.502 296.933 150.708 299.07C150.471 296.814 150.946 293.132 155.459 291.113C161.99 288.026 175.885 288.026 182.655 288.738Z" fill="white" stroke="#263238" stroke-miterlimit="10" stroke-linecap="round" stroke-linejoin="round"/>
<path d="M304.977 265.818C304.977 265.818 293.101 283.632 281.225 290.757C269.349 297.883 215.076 298.714 204.031 298.714C192.987 298.714 181.111 298.714 181.111 298.714V290.401C181.111 290.401 217.57 285.294 237.759 273.775C257.948 262.255 268.636 249.666 284.431 244.441C300.226 239.334 314.121 248.004 313.765 269.38" fill="#263238"/>
<path d="M304.977 265.818C304.977 265.818 293.101 283.632 281.225 290.757C269.349 297.883 215.076 298.714 204.031 298.714C192.987 298.714 181.111 298.714 181.111 298.714V290.401C181.111 290.401 217.57 285.294 237.759 273.775C257.948 262.255 268.636 249.666 284.431 244.441C300.226 239.334 314.121 248.004 313.765 269.38" stroke="#263238" stroke-miterlimit="10" stroke-linecap="round" stroke-linejoin="round"/>
<path d="M297.02 279.475C290.607 285.532 279.562 293.489 262.342 296.576" stroke="white" stroke-miterlimit="10" stroke-linecap="round" stroke-linejoin="round"/>
<path d="M304.739 269.737C304.739 269.737 303.789 271.756 301.414 274.606" stroke="white" stroke-miterlimit="10" stroke-linecap="round" stroke-linejoin="round"/>
<path d="M244.766 271.518C244.766 271.518 237.046 278.05 225.764 278.644" stroke="white" stroke-miterlimit="10" stroke-linecap="round" stroke-linejoin="round"/>
<path d="M173.985 248.954C173.51 248.954 173.154 248.835 172.679 248.835Z" fill="#263238"/>
<path d="M173.985 248.954C173.51 248.954 173.154 248.835 172.679 248.835" stroke="#263238" stroke-miterlimit="10" stroke-linecap="round" stroke-linejoin="round"/>
<path d="M285.5 300.258C285.5 300.258 295.357 296.695 303.67 295.508C311.983 294.32 318.753 295.508 321.128 300.614C323.503 305.721 321.959 312.134 313.646 313.678C305.333 315.222 290.251 312.134 288.707 312.134C287.163 312.134 284.788 310.946 284.788 310.946L285.5 300.258Z" fill="white" stroke="#263238" stroke-miterlimit="10" stroke-linecap="round" stroke-linejoin="round"/>
<path d="M311.627 295.151C314.121 296.101 318.872 298.833 318.04 305.008C316.853 313.321 306.996 313.321 300.226 313.321C299.751 313.321 299.276 313.44 298.801 313.559C303.789 314.153 309.608 314.509 313.765 313.797C322.078 312.253 323.622 305.84 321.247 300.733C319.584 297.289 316.14 295.626 311.627 295.151Z" fill="white" stroke="#263238" stroke-miterlimit="10" stroke-linecap="round" stroke-linejoin="round"/>
<path d="M169.591 240.047C169.591 240.047 156.171 237.672 147.383 244.441C138.714 251.21 139.901 258.336 148.214 268.549C156.527 278.881 177.904 297.051 224.22 305.365C270.536 313.678 284.788 310.946 284.788 310.946L285.619 300.258C285.619 300.258 256.76 301.802 230.158 282.444C204.269 263.443 192.63 250.973 174.104 248.954" fill="#263238"/>
<path d="M169.591 240.047C169.591 240.047 156.171 237.672 147.383 244.441C138.714 251.21 139.901 258.336 148.214 268.549C156.527 278.881 177.904 297.051 224.22 305.365C270.536 313.678 284.788 310.946 284.788 310.946L285.619 300.258C285.619 300.258 256.76 301.802 230.158 282.444C204.269 263.443 192.63 250.973 174.104 248.954" stroke="#263238" stroke-miterlimit="10" stroke-linecap="round" stroke-linejoin="round"/>
<path d="M168.878 249.073C167.453 249.191 166.028 249.31 164.603 249.548" stroke="white" stroke-miterlimit="10" stroke-linecap="round" stroke-linejoin="round"/>
<path d="M279.8 300.02C279.8 300.02 252.485 299.427 221.608 275.675C199.756 258.93 186.811 251.567 176.598 249.548" stroke="white" stroke-miterlimit="10" stroke-linecap="round" stroke-linejoin="round"/>
<path d="M279.562 127.463C272.318 131.263 271.249 123.544 271.249 118.912C271.368 118.794 271.368 118.794 271.368 118.675C271.843 116.537 271.368 105.849 265.192 101.573C259.729 97.7731 252.604 94.5666 245.953 94.5666C241.203 94.5666 237.046 97.5356 234.552 101.336C231.583 105.849 231.821 111.193 231.583 116.418C231.346 121.763 230.871 127.463 231.94 132.688C233.365 139.695 239.897 154.421 247.854 154.421C255.098 154.421 267.805 143.614 272.199 137.32C272.674 137.201 273.743 136.726 274.931 135.776C276.475 134.47 279.8 132.095 279.562 127.463Z" fill="white" stroke="#263238" stroke-miterlimit="10" stroke-linecap="round" stroke-linejoin="round"/>
<path d="M247.735 122.713C247.735 122.713 244.409 132.807 244.647 133.876C244.884 135.064 248.803 133.876 248.803 133.876" stroke="#263238" stroke-miterlimit="10" stroke-linecap="round" stroke-linejoin="round"/>
<path d="M244.766 138.151C244.766 138.151 249.041 141.358 255.929 136.251" stroke="#263238" stroke-miterlimit="10" stroke-linecap="round" stroke-linejoin="round"/>
<path d="M255.217 126.275C255.217 126.275 257.592 131.145 265.074 128.413" stroke="#263238" stroke-miterlimit="10" stroke-linecap="round" stroke-linejoin="round"/>
<path d="M233.959 120.456C233.959 120.456 235.384 125.325 242.866 123.544" stroke="#263238" stroke-miterlimit="10" stroke-linecap="round" stroke-linejoin="round"/>
<path d="M247.26 116.656C247.26 116.656 244.647 107.155 235.859 112.024" stroke="#263238" stroke-miterlimit="10" stroke-linecap="round" stroke-linejoin="round"/>
<path d="M259.254 136.37C264.436 136.37 268.636 132.169 268.636 126.988C268.636 121.806 264.436 117.606 259.254 117.606C254.073 117.606 249.872 121.806 249.872 126.988C249.872 132.169 254.073 136.37 259.254 136.37Z" stroke="#263238" stroke-miterlimit="10" stroke-linecap="round" stroke-linejoin="round"/>
<path d="M237.759 132.095C242.94 132.095 247.141 127.894 247.141 122.713C247.141 117.531 242.94 113.331 237.759 113.331C232.577 113.331 228.377 117.531 228.377 122.713C228.377 127.894 232.577 132.095 237.759 132.095Z" stroke="#263238" stroke-miterlimit="10" stroke-linecap="round" stroke-linejoin="round"/>
<path d="M268.161 128.888L275.762 127.463" stroke="#263238" stroke-miterlimit="10" stroke-linecap="round" stroke-linejoin="round"/>
<path d="M228.615 120.456L231.465 118.319" stroke="#263238" stroke-miterlimit="10" stroke-linecap="round" stroke-linejoin="round"/>
<path d="M237.878 98.1294C237.878 98.1294 246.191 93.0228 249.041 97.8919C252.01 102.642 265.311 134.589 279.562 127.463C293.813 120.337 279.443 96.8231 265.549 89.3412C251.654 81.8594 240.015 88.2724 237.878 98.1294Z" fill="#263238" stroke="#263238" stroke-miterlimit="10" stroke-linecap="round" stroke-linejoin="round"/>
<path d="M246.072 94.5666C246.072 94.5666 241.44 90.6476 238.709 92.4289C235.978 94.2103 235.978 96.4668 235.978 96.4668" stroke="white" stroke-miterlimit="10" stroke-linecap="round" stroke-linejoin="round"/>
<path d="M280.037 119.031C281.106 119.744 282.294 120.219 283.481 120.575" stroke="white" stroke-miterlimit="10" stroke-linecap="round" stroke-linejoin="round"/>
<path d="M244.053 84.8284C244.053 84.8284 252.248 75.8026 261.273 89.8163C267.211 99.0795 270.655 108.224 275.049 114.281" stroke="white" stroke-miterlimit="10" stroke-linecap="round" stroke-linejoin="round"/>
<path d="M257.473 115.35C257.473 115.35 264.005 111.787 269.587 117.25" stroke="white" stroke-miterlimit="10" stroke-linecap="round" stroke-linejoin="round"/>
<path d="M245.241 206.2C245.241 206.2 254.148 217.364 268.993 217.364" stroke="#263238" stroke-miterlimit="10" stroke-linecap="round" stroke-linejoin="round"/>
<path d="M31.7112 436H441.55" stroke="#263238" stroke-miterlimit="10" stroke-linecap="round" stroke-linejoin="round"/>
</svg>
